<svg xmlns="http://www.w3.org/2000/svg" xmlns:xlink="http://www.w3.org/1999/xlink" version="1.1" width="256" height="256" viewBox="0 0 256 256" xml:space="preserve">

<defs>
</defs>
<g style="stroke: none; stroke-width: 0; stroke-dasharray: none; stroke-linecap: butt; stroke-linejoin: miter; stroke-miterlimit: 10; fill: none; fill-rule: nonzero; opacity: 1;" transform="translate(1.4065934065934016 1.4065934065934016) scale(2.81 2.81)" >
	<circle cx="44.995000000000005" cy="54.394999999999996" r="11.465" style="stroke: none; stroke-width: 1; stroke-dasharray: none; stroke-linecap: butt; stroke-linejoin: miter; stroke-miterlimit: 10; fill: rgb(248,204,29); fill-rule: nonzero; opacity: 1;" transform="  matrix(1 0 0 1 0 0) "/>
	<path d="M 71.212 34.087 H 18.788 c -1.831 0 -3.321 1.489 -3.321 3.32 v 30.273 c 0 1.831 1.49 3.32 3.321 3.32 h 19.959 v 7.142 h -7.899 c -0.542 0 -0.982 0.439 -0.982 0.982 c 0 0.543 0.44 0.982 0.982 0.982 h 28.305 c 0.543 0 0.982 -0.439 0.982 -0.982 c 0 -0.543 -0.439 -0.982 -0.982 -0.982 h -7.899 v -7.142 h 19.959 c 1.831 0 3.32 -1.489 3.32 -3.32 V 37.407 C 74.533 35.576 73.043 34.087 71.212 34.087 z M 49.29 78.143 h -8.579 v -7.142 h 8.579 V 78.143 z M 72.568 67.681 c 0 0.748 -0.608 1.356 -1.356 1.356 H 18.788 c -0.748 0 -1.357 -0.608 -1.357 -1.356 V 37.407 c 0 -0.748 0.609 -1.356 1.357 -1.356 h 52.424 c 0.748 0 1.356 0.609 1.356 1.356 V 67.681 z" style="stroke: none; stroke-width: 1; stroke-dasharray: none; stroke-linecap: butt; stroke-linejoin: miter; stroke-miterlimit: 10; fill: rgb(0,0,0); fill-rule: nonzero; opacity: 1;" transform=" matrix(1 0 0 1 0 0) " stroke-linecap="round" />
	<path d="M 57.675 45.421 l -4.919 1.317 l 1.106 1.106 L 43.545 58.163 l -5.413 -5.412 l -6.501 6.501 c -0.384 0.384 -0.384 1.005 0 1.389 c 0.384 0.384 1.005 0.384 1.389 0 l 5.113 -5.113 l 5.413 5.412 l 11.707 -11.707 l 1.106 1.106 L 57.675 45.421 z" style="stroke: none; stroke-width: 1; stroke-dasharray: none; stroke-linecap: butt; stroke-linejoin: miter; stroke-miterlimit: 10; fill: rgb(0,0,0); fill-rule: nonzero; opacity: 1;" transform=" matrix(1 0 0 1 0 0) " stroke-linecap="round" />
	<path d="M 76.019 56.023 H 63.304 c -0.543 0 -0.982 -0.439 -0.982 -0.982 c 0 -0.543 0.439 -0.982 0.982 -0.982 h 12.715 c 0.543 0 0.982 0.439 0.982 0.982 C 77.001 55.584 76.562 56.023 76.019 56.023 z" style="stroke: none; stroke-width: 1; stroke-dasharray: none; stroke-linecap: butt; stroke-linejoin: miter; stroke-miterlimit: 10; fill: rgb(248,204,29); fill-rule: nonzero; opacity: 1;" transform=" matrix(1 0 0 1 0 0) " stroke-linecap="round" />
	<path d="M 26.548 56.023 H 13.834 c -0.542 0 -0.982 -0.439 -0.982 -0.982 c 0 -0.543 0.44 -0.982 0.982 -0.982 h 12.714 c 0.542 0 0.982 0.439 0.982 0.982 C 27.53 55.584 27.09 56.023 26.548 56.023 z" style="stroke: none; stroke-width: 1; stroke-dasharray: none; stroke-linecap: butt; stroke-linejoin: miter; stroke-miterlimit: 10; fill: rgb(248,204,29); fill-rule: nonzero; opacity: 1;" transform=" matrix(1 0 0 1 0 0) " stroke-linecap="round" />
	<path d="M 57.921 43.029 c -0.251 0 -0.503 -0.096 -0.694 -0.288 c -0.384 -0.384 -0.384 -1.005 0 -1.389 l 8.991 -8.99 c 0.384 -0.384 1.005 -0.384 1.389 0 c 0.384 0.384 0.384 1.005 0 1.389 l -8.991 8.99 C 58.424 42.933 58.172 43.029 57.921 43.029 z" style="stroke: none; stroke-width: 1; stroke-dasharray: none; stroke-linecap: butt; stroke-linejoin: miter; stroke-miterlimit: 10; fill: rgb(248,204,29); fill-rule: nonzero; opacity: 1;" transform=" matrix(1 0 0 1 0 0) " stroke-linecap="round" />
	<path d="M 31.931 43.029 c -0.251 0 -0.503 -0.096 -0.694 -0.288 l -8.99 -8.99 c -0.384 -0.384 -0.384 -1.005 0 -1.389 c 0.384 -0.384 1.005 -0.384 1.389 0 l 8.99 8.99 c 0.384 0.384 0.384 1.005 0 1.389 C 32.433 42.933 32.182 43.029 31.931 43.029 z" style="stroke: none; stroke-width: 1; stroke-dasharray: none; stroke-linecap: butt; stroke-linejoin: miter; stroke-miterlimit: 10; fill: rgb(248,204,29); fill-rule: nonzero; opacity: 1;" transform=" matrix(1 0 0 1 0 0) " stroke-linecap="round" />
	<path d="M 44.926 37.645 c -0.542 0 -0.982 -0.44 -0.982 -0.982 V 23.949 c 0 -0.542 0.44 -0.982 0.982 -0.982 s 0.982 0.44 0.982 0.982 v 12.714 C 45.908 37.206 45.468 37.645 44.926 37.645 z" style="stroke: none; stroke-width: 1; stroke-dasharray: none; stroke-linecap: butt; stroke-linejoin: miter; stroke-miterlimit: 10; fill: rgb(248,204,29); fill-rule: nonzero; opacity: 1;" transform=" matrix(1 0 0 1 0 0) " stroke-linecap="round" />
	<path d="M 4.722 54.06 l 0 -1.776 c 0 -0.543 -0.439 -0.982 -0.982 -0.982 s -0.982 0.439 -0.982 0.982 l 0 1.776 l -1.776 0 C 0.439 54.06 0 54.5 0 55.042 c 0 0.543 0.439 0.982 0.982 0.982 l 1.776 0 l 0 1.776 c 0 0.543 0.439 0.982 0.982 0.982 c 0.271 0 0.517 -0.11 0.694 -0.288 c 0.178 -0.178 0.288 -0.423 0.288 -0.694 l 0 -1.776 l 1.776 0 c 0.271 0 0.517 -0.11 0.694 -0.288 s 0.288 -0.423 0.288 -0.694 c 0 -0.543 -0.439 -0.982 -0.982 -0.982 L 4.722 54.06 z" style="stroke: none; stroke-width: 1; stroke-dasharray: none; stroke-linecap: butt; stroke-linejoin: miter; stroke-miterlimit: 10; fill: rgb(248,204,29); fill-rule: nonzero; opacity: 1;" transform=" matrix(1 0 0 1 0 0) " stroke-linecap="round" />
	<path d="M 45.919 11.829 v -1.777 c 0 -0.543 -0.439 -0.982 -0.982 -0.982 c -0.543 0 -0.982 0.439 -0.982 0.982 v 1.777 h -1.777 c -0.543 0 -0.982 0.439 -0.982 0.982 s 0.439 0.982 0.982 0.982 h 1.777 v 1.777 c 0 0.543 0.439 0.982 0.982 0.982 c 0.271 0 0.517 -0.11 0.694 -0.288 c 0.178 -0.178 0.288 -0.423 0.288 -0.694 v -1.777 h 1.777 c 0.271 0 0.517 -0.11 0.694 -0.288 c 0.178 -0.178 0.288 -0.423 0.288 -0.694 c 0 -0.543 -0.439 -0.982 -0.982 -0.982 H 45.919 z" style="stroke: none; stroke-width: 1; stroke-dasharray: none; stroke-linecap: butt; stroke-linejoin: miter; stroke-miterlimit: 10; fill: rgb(248,204,29); fill-rule: nonzero; opacity: 1;" transform=" matrix(1 0 0 1 0 0) " stroke-linecap="round" />
	<path d="M 87.242 54.06 l 0 -1.776 c 0 -0.543 -0.439 -0.982 -0.982 -0.982 c -0.543 0 -0.982 0.439 -0.982 0.982 l 0 1.777 l -1.777 0 c -0.543 0 -0.982 0.439 -0.982 0.982 c 0 0.543 0.439 0.982 0.982 0.982 l 1.776 0 l 0 1.776 c 0 0.543 0.439 0.982 0.982 0.982 c 0.271 0 0.517 -0.11 0.694 -0.288 s 0.288 -0.423 0.288 -0.694 l 0 -1.777 l 1.777 0 c 0.271 0 0.517 -0.11 0.694 -0.288 S 90 55.313 90 55.042 c 0 -0.543 -0.439 -0.982 -0.982 -0.982 L 87.242 54.06 z" style="stroke: none; stroke-width: 1; stroke-dasharray: none; stroke-linecap: butt; stroke-linejoin: miter; stroke-miterlimit: 10; fill: rgb(248,204,29); fill-rule: nonzero; opacity: 1;" transform=" matrix(1 0 0 1 0 0) " stroke-linecap="round" />
	<path d="M 15.486 29.241 c -0.98 0 -1.96 -0.373 -2.705 -1.119 c -0.723 -0.723 -1.121 -1.683 -1.121 -2.705 s 0.398 -1.983 1.121 -2.705 c 1.445 -1.445 3.966 -1.445 5.411 0 c 1.492 1.492 1.492 3.919 0 5.411 C 17.445 28.868 16.465 29.241 15.486 29.241 z M 15.486 23.554 c -0.497 0 -0.965 0.194 -1.317 0.546 c -0.352 0.352 -0.546 0.819 -0.546 1.317 c 0 0.497 0.194 0.965 0.546 1.317 c 0.726 0.726 1.907 0.725 2.634 0 c 0.726 -0.726 0.726 -1.908 0 -2.634 C 16.45 23.748 15.983 23.554 15.486 23.554 z" style="stroke: none; stroke-width: 1; stroke-dasharray: none; stroke-linecap: butt; stroke-linejoin: miter; stroke-miterlimit: 10; fill: rgb(248,204,29); fill-rule: nonzero; opacity: 1;" transform=" matrix(1 0 0 1 0 0) " stroke-linecap="round" />
	<path d="M 74.609 29.241 c -0.98 0 -1.959 -0.373 -2.705 -1.119 c -1.492 -1.492 -1.492 -3.919 0 -5.411 c 1.444 -1.445 3.967 -1.445 5.411 0 c 1.492 1.492 1.492 3.919 0 5.411 C 76.569 28.868 75.589 29.241 74.609 29.241 z M 74.609 23.554 c -0.498 0 -0.965 0.194 -1.317 0.546 c -0.726 0.726 -0.726 1.908 0 2.634 c 0.727 0.726 1.907 0.726 2.634 0 c 0.726 -0.726 0.726 -1.908 0 -2.634 C 75.574 23.748 75.107 23.554 74.609 23.554 z" style="stroke: none; stroke-width: 1; stroke-dasharray: none; stroke-linecap: butt; stroke-linejoin: miter; stroke-miterlimit: 10; fill: rgb(248,204,29); fill-rule: nonzero; opacity: 1;" transform=" matrix(1 0 0 1 0 0) " stroke-linecap="round" />
</g>
</svg>